<?xml version="1.0" standalone="no"?>
<!DOCTYPE svg PUBLIC "-//W3C//DTD SVG 20010904//EN"
 "http://www.w3.org/TR/2001/REC-SVG-20010904/DTD/svg10.dtd">
<svg version="1.0" xmlns="http://www.w3.org/2000/svg"
 width="499.000000pt" height="499.000000pt" viewBox="0 0 499.000000 499.000000"
 preserveAspectRatio="xMidYMid meet">
<metadata>
Created by potrace 1.14, written by Peter Selinger 2001-2017
</metadata>
<g transform="translate(0.000000,499.000000) scale(0.100000,-0.100000)"
fill="#000000" stroke="none">
<path d="M1079 3870 c-73 -27 -170 -97 -224 -162 -27 -32 -55 -64 -61 -71 -37
-42 -144 -189 -144 -198 0 -5 -9 -20 -21 -32 -63 -67 -181 -270 -248 -427 -13
-30 -34 -79 -47 -108 -13 -29 -24 -58 -24 -64 0 -6 -11 -36 -24 -67 -44 -101
-105 -306 -113 -376 -12 -99 -7 -337 7 -379 13 -41 80 -130 110 -146 26 -14
79 -19 250 -24 154 -4 230 5 362 45 l71 22 16 -21 c9 -11 39 -52 66 -92 51
-73 87 -110 165 -170 25 -19 70 -56 100 -81 30 -26 75 -59 100 -73 86 -48 308
-156 322 -156 7 0 22 -6 33 -13 23 -16 151 -54 221 -66 27 -5 81 -16 119 -24
39 -9 106 -18 150 -22 84 -7 335 -7 376 0 13 2 49 6 79 10 30 3 72 10 93 16
21 6 50 12 65 14 49 6 193 46 240 67 178 77 386 182 456 230 33 22 85 54 115
71 67 35 212 179 261 258 l34 56 53 1 c49 1 150 34 390 128 34 13 64 24 67 24
8 0 177 78 196 90 8 5 68 42 133 81 176 107 167 90 167 331 l0 201 -42 76
c-24 42 -47 83 -53 92 -5 9 -29 50 -52 90 -23 41 -63 99 -88 129 -26 30 -61
73 -80 95 -18 22 -59 74 -91 115 -31 41 -73 91 -93 111 -20 20 -49 52 -66 70
-16 19 -50 50 -75 69 -25 19 -46 38 -48 42 -4 8 -62 66 -84 83 -7 6 -56 31
-108 58 -91 45 -98 47 -182 47 -107 0 -180 -15 -216 -44 -15 -12 -54 -35 -87
-51 -51 -25 -127 -75 -145 -95 -3 -3 -18 -14 -35 -25 -33 -21 -77 -59 -171
-150 -34 -33 -80 -77 -101 -97 l-39 -37 -94 15 c-52 8 -117 17 -145 20 -61 7
-337 7 -420 0 -33 -3 -112 -8 -175 -11 -63 -3 -142 -8 -175 -11 -33 -4 -90 -7
-127 -9 l-66 -2 -18 41 c-45 104 -99 180 -192 272 -112 110 -147 133 -274 179
-51 18 -109 41 -128 51 -49 26 -179 28 -241 4z m2842 -313 c-10 -9 -11 -8 -5
6 3 10 9 15 12 12 3 -3 0 -11 -7 -18z m-128 -202 c-3 -9 -8 -14 -10 -11 -3 3
-2 9 2 15 9 16 15 13 8 -4z"/>
</g>
</svg>
